<svg xmlns="http://www.w3.org/2000/svg" xmlns:xlink="http://www.w3.org/1999/xlink" viewBox="0 0 1052.3622 744.09448">
  <defs>
    <radialGradient id="a" cx="22.681999" cy="-15.034" r="3.2432001" gradientTransform="matrix(1 0 0 2.37143 0 19.951903)" gradientUnits="userSpaceOnUse">
      <stop offset="0" stop-color="#e7e7e7"/>
      <stop offset="1" stop-color="#565656"/>
    </radialGradient>
    <radialGradient id="c" cx="25.500999" cy="30.67" r="15.188" gradientTransform="matrix(1.55222 0 0 .6192 -14.017914 5.1393734)" gradientUnits="userSpaceOnUse">
      <stop offset="0"/>
      <stop offset="1" stop-color="#5e5e5e"/>
    </radialGradient>
    <radialGradient xlink:href="#a" id="f" cx="22.681999" cy="-15.034" r="3.2432001" gradientTransform="matrix(1 0 0 2.37143 0 19.951903)" gradientUnits="userSpaceOnUse"/>
    <radialGradient xlink:href="#a" id="g" cx="22.681999" cy="-15.034" r="3.2432001" gradientTransform="matrix(1 0 0 2.37143 0 19.951903)" gradientUnits="userSpaceOnUse"/>
    <radialGradient xlink:href="#c" id="i" cx="25.500999" cy="30.67" r="15.188" gradientTransform="matrix(29.1164 0 0 11.61495 -339.16921 200.34817)" gradientUnits="userSpaceOnUse"/>
    <linearGradient id="b" x1="11.685" x2="10.783" y1="33.646999" y2="35.870998" gradientTransform="matrix(1.04306 0 0 1.04306 -1.0340993 -1.2785325)" gradientUnits="userSpaceOnUse">
      <stop offset="0" stop-color="#96d2e2"/>
      <stop offset="1" stop-color="#1d5868"/>
    </linearGradient>
    <linearGradient id="d">
      <stop offset="0" stop-color="#666"/>
      <stop offset="1" stop-color="#ababab" stop-opacity="0"/>
    </linearGradient>
    <linearGradient xlink:href="#b" id="h" x1="11.685" x2="10.783" y1="33.646999" y2="35.870998" gradientTransform="matrix(19.56562 0 0 19.56562 -95.619433 79.96141)" gradientUnits="userSpaceOnUse"/>
    <linearGradient xlink:href="#d" id="j" x1="22.900999" x2="21.304001" y1="27.156" y2="16.709" gradientTransform="matrix(19.56562 0 0 19.56562 -95.619433 79.96141)" gradientUnits="userSpaceOnUse"/>
    <linearGradient xlink:href="#d" id="k" x1="9.6497002" x2="20.747999" y1="29.287001" y2="18.285" gradientTransform="matrix(19.56562 0 0 19.56562 -95.619433 79.96141)" gradientUnits="userSpaceOnUse"/>
    <filter id="e" color-interpolation-filters="sRGB">
      <feGaussianBlur stdDeviation=".57264819"/>
    </filter>
  </defs>
  <g transform="translate(151.89538 -274.138312)">
    <path fill="red" d="M131.39116 525.19133c-14.51941 13.47277-54.467466 6.04613-45.645596-25.74715 8.82224-31.79288 47.570156-14.89151 51.867606 3.143-2.89286 12.1668-5.58124 12.75615-6.22165 22.6053z"/>
    <path fill="#a00" d="M131.39116 525.19133c-15.59725 16.70613-57.978956 1.24167-42.087216-24.08528 9.7215-15.49285 28.093796-2.04151 39.129086 14.6455-2.89285 12.16681 3.59758-.40938 2.95738 9.43901z"/>
    <path d="M4.9015 37.413c-.0877 2.787 13.92 8.038 18.822 7.254 2.332-.373 19.696-13.492 19.214-15.097-2.94-9.803-37.8.368-38.036 7.843z" filter="url(#e)" opacity=".5" transform="matrix(22.69597 0 0 22.69597 -168.69772 -28.51114)"/>
    <g color="#000">
      <path d="M681.7931723 507.10753853c-24.16569653 0-43.83182577 46.61351635-43.83182577 103.9228831 0 48.0101328 13.84997203 88.1888255 32.52038686 100.03505692 16.25961632 12.25251985 34.9269532 12.539538 54.0813745 9.5439304 23.36735517-2.14744206 42.0639325-47.6292374 42.0639325-103.56891972 0-57.30936675-19.66420553-103.92288311-43.83182577-103.92288311-18.11753939 10.32957523-23.590506 3.62350788-41.00396604-6.00910574z" enable-background="accumulate"/>
      <path fill="url(#f)" d="M27.058-14.548a3.24325 7.6912186 0 1 1-6.4865 0 3.24325 7.6912186 0 1 1 6.4865 0z" enable-background="accumulate" transform="matrix(6.78678 0 0 6.78678 561.11854833 715.62683553)"/>
    </g>
    <g color="#000">
      <path d="M381.36534416 696.17315138c-28.51068254 0-51.71277676 54.9946146-51.71277676 122.60819074 0 56.64234231 16.34019344 104.0451536 38.36754405 118.0213344 19.18309114 14.45551976 41.20681039 14.79414369 63.8051917 11.25992662 27.56879962-2.53355158 49.62701675-56.19296203 49.62701675-122.19058482 0-67.61357615-23.19982462-122.60819074-51.71277676-122.60819074-21.37506831 12.1868302-27.83207291 4.27501366-48.37646858-7.0895414z" enable-background="accumulate"/>
      <path fill="url(#g)" d="M27.058-14.548a3.24325 7.6912186 0 1 1-6.4865 0 3.24325 7.6912186 0 1 1 6.4865 0z" enable-background="accumulate" transform="matrix(8.00704 0 0 8.00704 238.99345386 942.1841643)"/>
    </g>
    <path fill="#6d0000" d="M119.91129 525.04128c-5.30962 10.07566-26.593136 4.82088-27.099606-3.33551-.91633-14.79671 32.479386-6.8732 27.099606 3.33551z"/>
    <path fill="red" d="M410.02178 303.7349c-9.52172.28773-18.21566 1.36139-25.67965 3.05725-59.71406 13.57125-136.31028 67.17964-158.02449 80.7511-24.89555 15.56024-76.26232 91.96647-108.83363 132.6787-18.261986 22.8266-166.486192 74.01712-178.26056 131.41444-4.928839 24.02714-6.917369 43.97436-7.948495 61.14356-.01151.1931.01113.42096 0 .61214-4.977986 9.09257-7.948495 21.16068-7.948495 34.85032 0 23.63495 10.340697 41.20929 21.399068 48.91323C47.755454 868.92926 166.74465 907.53877 288.35245 932.89197c45.22353 7.7864 95.99381-23.23367 95.99381-23.23367s-9.86235-138.73759 37.90796-174.25566c57.1986-42.52801 50.00682 109.06614 67.25663 94.77075 26.76384-22.17932 179.63927-137.98718 193.20689-146.13004 13.57121-8.14288.28291-123.28856 33.62927-145.51867 48.85697-32.5713 42.93321 95.51748 55.63984 80.09647 11.46748-13.91711 18.58764-14.45144 21.39907-19.56641 11.73929-6.19231 20.17792-25.42253 20.17792-48.30166 0-23.63514-9.06195-43.42479-21.39906-48.91323-1.613-15.62049-4.71089-30.35984-11.61718-40.35402-13.80585-19.97714-23.05353-31.02566-81.33448-45.86312-18.58914-21.81551-43.59347-46.4073-78.87718-65.40907-35.03985-18.88919-143.66715-48.48935-210.33293-46.48222z" color="#000" enable-background="accumulate"/>
    <path fill="#ff8080" d="M383.12286 331.25281c-29.19485-.98291-67.78372 9.89646-118.00438 40.96559-30.06338 18.59818 58.46103 14.24867 177.31329 59.92043 29.96394 11.51372 28.27573-97.9373-59.30891-100.88602zM93.312514 575.81913c-33.96315.69519-71.17141 11.96945-109.445136 39.13089-41.61452 29.53258 187.148072 108.58416 295.925442 139.40534 55.85368 15.82499-39.31479-181.5508-186.484046-178.53623z"/>
    <path fill="#a00" d="M620.35469 365.50489c-44.06054-1.88085-147.18615 58.73303-155.68538 79.12863-9.06515 21.75546-34.40958 166.47679-45.28732 180.98229-10.87811 14.50415-99.74166 118.64593-109.16941 143.45148-13.78352 36.26848-10.11091 109.27065-10.85691 127.07015-.63571 15.16341-13.73043 27.91918-44.02304 29.43293 11.0203 2.54379 21.94306 5.02828 33.01775 7.33724 45.22355 7.78639 95.99382-23.23368 95.99382-23.23368s-9.86236-138.73738 37.90795-174.25566c57.19863-42.52799 50.00682 109.06616 67.25664 94.77076 26.76384-22.17932 179.63927-137.98717 193.20689-146.13005 13.5712-8.14286.2829-123.28856 33.62926-145.51847 48.85698-32.57129 42.93321 95.51729 55.63984 80.09648 11.46749-13.91711 18.58764-14.45163 21.39908-19.56661 11.73928-6.19231 20.17793-25.42252 20.17793-48.30166 0-23.63495-9.06197-43.42459-21.39908-48.91322-1.613-15.6205-4.71088-30.35965-11.61699-40.35402-5.49738-7.95576-10.29417-14.86101-17.73132-20.78742-11.75843-4.95586-22.11938-7.41004-37.33959-3.60509-37.4146-21.38392-62.89728-69.79816-105.1233-71.6008z" color="#000" enable-background="accumulate"/>
    <path fill="#a00" d="M335.89036 758.03382c-19.94347 5.43901.47445 14.84035-30.8212 14.50415-33.46232-.35918-326.350842-110.59496-358.970922-128.72448-5.01175-2.78438-16.317354 61.64235-12.691254 70.70808 3.6261 9.06513 103.34318 54.39046 163.17355 77.95995 59.830356 23.56929 174.051276 65.26829 201.254066 63.45619 27.19527-1.81327 72.52199-97.90331 38.073-97.90331z"/>
    <path fill="none" stroke="#000" stroke-linecap="round" stroke-width="13.34506607" d="m45.511624 757.1521 118.407706 44.84469M44.646884 724.15694 180.3588 778.44236"/>
    <path fill="url(#h)" d="M-60.76811 651.63871c-4.4839 21.85857-6.75455 40.09892-7.948494 56.25142l89.269098 37.90969-17.1203855-62.37017-64.2009695-31.79461zm294.70618 113.72578-40.35398 48.30166c100.63454 40.81168 116.07046 41.5057 151.63364 23.84505 21.58479-10.71948 2.04219-63.45619-17.11999-53.19379-19.16126 10.26297-42.24292-4.79501-94.1593-18.95485z"/>
    <path fill="#ccc" d="M428.36705 304.9729c-44.00802 11.97775-160.50429 61.37605-169.36556 92.93644-4.25241 15.14681-51.53183 118.69844-56.25134 126.56537-4.71967 7.86615-130.258956 77.30532-175.478756 157.13724l56.25135 20.17798c45.788166-69.7495 160.448006-140.62075 173.032726-151.63355 12.58602-11.01281 44.18436-125.00488 56.86285-144.9071 22.50579-35.33058 143.14193-85.92092 173.03272-93.54781.73149-.19311 1.23549-.38622 1.83432-.61215-20.74631-3.69527-41.3988-5.3272-59.91291-6.11507zm111.89119 17.73133c-1.64295.37269-3.39351.25876-4.89132.61214-62.68908 14.77334-151.96567 61.46045-170.58857 92.93644-8.0106 13.54037-56.42206 143.15506-61.14342 151.02199-4.71969 7.86614-108.85803 74.33227-154.0797 161.41607l63.58758 22.01054c45.78817-77.00137 134.76838-151.01464 147.3531-162.02744 12.58601-11.01281 40.8642-129.5894 51.97077-150.41061 20.76131-38.91712 120.16345-87.78729 183.42839-98.43995-15.40908-5.73562-34.71909-11.73077-55.63982-17.11976z"/>
    <path fill="url(#i)" d="M622.19298 380.17357c-13.57121 0-49.52101 6.59687-38.85898 17.96518 15.74974 16.79438 35.26306 64.09402 45.85756 92.32469 6.94213 18.50046 65.22515-27.8968 70.65369-38.75396 8.14284-16.28535-64.07903-71.53726-77.6504-71.53726zM240.9376 394.47013c-2.28978.0139-3.80074.1738-4.89132.61215-16.06751 6.37132-98.25041 113.97701-100.8859 133.29027-1.51317 11.08849 262.29243 96.6485 268.40753 81.3196 10.85692-27.14291 52.87868-148.52378 42.18851-160.19295-10.32605-11.27272-170.47977-55.23472-204.83683-55.02829zm310.61292 14.67427c-13.57118 0-66.68075 29.05967-72.76022 43.41147-5.96428 14.08028-40.20954 143.55092-26.90266 147.35317 18.99994 5.42838 146.20512-76.57752 151.63366-87.43468 8.14283-16.28535-38.3994-103.32996-51.97078-103.32996z"/>
    <path fill="#a00" d="M-72.385285 772.7025c4.02677 11.19297 10.368833 19.75411 17.120013 24.45661C47.764654 868.93274 166.75385 907.54224 288.36164 932.89544c9.28857 1.59892 18.85736 1.06981 28.12567 0-2.70113-29.59263-14.86699-63.45059-16.50849-43.41146-2.02738 24.75284-29.86829 19.66393-52.58231 16.5084-59.31263-8.23479-274.728942-95.85311-319.766788-133.29394z" color="#000" enable-background="accumulate"/>
    <path fill="#b3b3b3" d="m29.479214 781.61258-.89251 48.11589 135.141656 52.66121-.085-50.01258-134.164356-50.76452z"/>
    <path fill="none" stroke="#000" stroke-linecap="round" stroke-width="13.34506607" d="m39.062654 691.57446 162.456996 63.72441"/>
    <path fill="#6d0000" d="M764.0406 458.43188c-22.34634 1.49849-53.66463 23.34412-112.50268 78.26177-91.33247 85.24736-185.91075 64.90023-303.25981 226.84001-27.264 37.62389 2.90562 57.76576-18.85061 90.40077-21.75621 32.63521-20.48895 59.98918 13.95929 58.17533 5.85173-.30703 21.34278-9.10144 40.35398-21.39916-.87729-38.07867 1.03427-127.43029 38.51945-155.30256 45.84444-34.08523 55.59481 32.09297 65.59843 79.3086 66.0899-49.44407 135.14167-102.03962 200.99145-153.29193 3.63792-36.67922 2.34248-106.11569 27.51417-122.89656 35.00421-23.3366 47.67895 18.97011 53.44329 61.36119 7.36005-5.61647 13.09378-11.45482 19.31693-16.11465 11.57291-8.6658 19.85153-20.05033 24.45662-33.01775 0-.20855.00096-.40359 0-.61215-.15835-23.35938-9.17078-42.86188-21.39908-48.30165-1.61301-15.6205-4.71087-30.35985-11.61717-40.35403-4.99187-2.30818-10.5189-3.4587-16.5085-3.05723l-.0158-.00059z"/>
    <path fill="#ff9e00" d="M-60.76811 651.63871c-4.4839 21.85857-6.75455 40.09892-7.948494 56.25142l16.508502 7.33704c3.18322-23.65368 7.53131-41.81138 11.00529-53.79783l-19.564547-9.7916zm392.5289 131.45576c-1.1903.17379-2.47099.58125-3.6685 1.22236-9.45137 5.06187-19.8928 3.50042-34.24076-.61215-7.36512 19.13308-12.41083 41.35933-14.67416 60.5318 29.94896 7.49442 44.57264 3.93221 66.03362-6.72567 20.23608-10.0494 4.40586-57.0391-13.45134-54.41672z"/>
    <path fill="url(#j)" d="M622.19298 380.17357c-13.57121 0-49.79299 6.36321-39.13097 17.73133 33.14343 7.08774 73.43926 19.47642 105.77608 30.57168-19.35069-21.79485-57.17423-48.30166-66.64511-48.30166z"/>
    <path fill="url(#k)" d="M240.65623 394.24208c-2.28979.0137-3.80075.17379-4.89133.61214-16.06749 6.37132-98.25039 113.97702-100.88589 133.29026 111.48976-62.30258 150.82518-91.69072 181.97464-119.88391-33.34037-8.12492-63.4469-14.09477-76.19854-14.01791z"/>
    <path fill="#f55" d="M-64.037246 729.18406c5.314879-2.86685 160.52117 68.31453 154.10783 68.89616-38.85897 3.52051-175.431869-57.39383-154.10783-68.89616z"/>
    <path fill="#fff" d="M371.5117 331.25281c-6.59042.44028-13.33503 2.028-20.78757 3.66862-33.71928 15.36212-67.54363 33.27091-83.15399 49.5246 9.7016 3.55526 28.13692 6.83014 53.1938 12.2286 18.74013-19.08442 58.91684-40.56026 95.99382-57.47437-9.49603-4.52041-20.40115-7.50311-33.62925-7.94861-3.64937-.11586-7.66977-.26455-11.61719 0zm70.92569 27.51425c-31.39331 16.01346-58.6655 34.38706-72.1487 50.13616 16.20555 4.36225 33.58987 10.10714 51.97078 16.50858 8.80422-9.70721 21.89428-19.77283 36.68492-29.34874-2.06094-12.30584-7.19762-25.79406-16.50849-37.29639zM126.32838 578.8729c-31.961666 24.35157-66.926486 55.03949-89.878716 88.04605 16.11833 7.78523 35.12802 15.27638 55.02833 23.23348 24.490376-32.23915 61.805566-63.43186 94.770796-88.65742-18.32879-10.60651-38.31123-18.64028-59.92041-22.62211zm100.88589 52.58223c-24.93119 23.38738-50.6127 52.05698-69.70267 83.76548 22.31259 7.84065 43.92738 15.38161 64.8106 22.01054 13.65974-20.68623 29.27741-40.76842 45.85756-59.30887-10.85109-15.69058-24.67982-31.71216-40.96549-46.46908z"/>
    <path fill="#a00" d="M631.14052 532.2443c8.60165 48.94335 12.82294 110.92518 15.73829 169.84764 10.4945-34.36446 10.67421-123.32235-15.73829-169.84764z"/>
    <path fill="#2b0000" d="M562.97217 396.11636c59.87814 105.57461 72.67716 148.11574 82.32278 302.26796 14.58796-126.8838-27.41711-238.4273-82.32278-302.26796z"/>
    <path fill="#a00" d="M460.1993 642.14718c22.17753 56.18191 39.97507 119.97584 38.36564 172.56193 13.20972-47.93978-4.71182-142.32972-38.36564-172.56193z"/>
    <path fill="#2b0000" d="M439.15287 612.99734c31.22824 57.08796 51.74007 117.25961 59.18134 194.27605 6.87442-75.09176-21.90741-151.38038-59.18134-194.27605z"/>
    <path fill="red" d="M449.30093 622.75148c10.7363 17.89392 62.62905 26.8407 66.20806-5.36814 3.57883-32.20941-39.3673-35.78842-59.05002-25.05138-31.29952 17.07284-7.15767 28.6304-7.15767 30.4199z"/>
    <path fill="#a00" d="M449.30093 622.75148c9.00907 18.3257 66.14617 27.7674 65.95859-7.95904-.16993-32.40618-42.14726-12.73201-61.76432-11.35054-20.15167 1.41932-9.37654 15.79294-4.19484 19.30939z"/>
    <path fill="#6d0000" d="M449.30093 622.75148c17.21342 22.21118 59.15131 17.42776 53.61585-2.40551-6.96106-24.94247-29.3937 2.60499-47.19875-4.31263-23.00475-8.93769-13.32566 5.36061-6.41692 6.71814z"/>
    <rect width="64.786217" height="23.239227" x="382.14487" y="322.75021" fill="#1a1a1a" color="#000" enable-background="accumulate" opacity=".5" rx="5.2702346" ry="3.9387946" transform="matrix(.96122 .27577 -.20533 .9787 0 0)"/>
    <path fill="#6d0000" d="M29.576744 784.44505c-3.66511 10.56364-8.20416 36.73735-1.65813 45.76367 1.48116-12.19827 1.96283-28.39016 1.65813-45.76367z"/>
    <path fill="#6d0000" d="M24.483964 826.2939c3.45447 11.34262 130.560976 58.95452 141.213616 55.66052-76.388016-26.80517-138.983296-56.6303-141.215486-55.65473z"/>
    <path fill="#963500" d="M332.05667 782.84381c-1.1903.1738-3.02668.56581-4.22418 1.20692-3.44698 1.84609-7.01037 2.73553-10.86219 3.01727-3.55766 15.78096-7.40194 44.28043-6.03454 60.34545 11.75-.78014 22.27734-3.63637 34.39691-9.65527 20.23608-10.04959 4.58119-57.53673-13.276-54.91437z" color="#000" enable-background="accumulate" opacity=".5" overflow="visible" style="marker:none"/>
  </g>
</svg>
