<svg xmlns="http://www.w3.org/2000/svg" width="574" height="76" viewBox="0 0 574 76">
	<clipPath id="logo-a">
		<path d="M-2065.385 8647.031v-5952.8h8418.9v5952.8h-8418.9z"></path>
	</clipPath>
	<path fill="none" d="M-1-1h576v78H-1z"></path>
	<g clip-path="url(#logo-a)" transform="matrix(.13333 0 0 -.13333 1 794.707)">
		<path fill="#00d741" d="M3674.685 5616.711h108.61v108.609h-108.61v-108.609z"></path>
		<path d="M3290.065 5397.901h493.23v108.609h-493.23v-108.609zm0 437.62h493.23v108.609h-493.23v-108.609zm0-218.81h298.59v108.609h-298.59v-108.609zM3.425 5944.131h143.63l207.79-359.83v359.83h110.02v-546.23h-123.77l-227.65 388.85v-388.85H3.425v546.23m570.04-546.23h124.527v546.227H573.465v-546.227zm233.13 546.23h143.63l207.79-359.83v359.83h110.01v-546.23h-123.76l-227.65 388.85v-388.85h-110.02v546.23m567.26 0h356.01v-96.26h-233.01v-127.58h186.41v-90.15h-186.41v-135.98h245.23v-96.26h-368.23v546.23m694.06 0h123.76v-449.21h222.3v-97.02h-346.06v546.23m430.89-546.23h124.527v546.227h-124.527v-546.227zm233.14 546.23h143.62l207.8-359.83v359.83h110v-546.23h-123.76l-227.65 388.85v-388.85h-110.01v546.23m1118.83-375.11h118.41c5.35-48.88 25.98-89.37 106.96-89.37 54.24 0 90.15 29.79 90.15 72.57 0 43.54-22.92 58.82-103.14 71.05-139.8 18.33-197.1 60.35-197.1 165.77 0 93.21 77.92 162.72 198.63 162.72 122.99 0 194.8-55 204.74-163.48h-113.83c-7.64 49.66-36.67 72.58-90.91 72.58-54.24 0-81.75-25.21-81.75-61.88 0-38.97 17.57-57.3 101.61-69.52 132.16-16.81 200.15-52.72 200.15-165.78 0-97.03-79.44-174.18-208.55-174.18-149.74 0-218.49 70.28-225.37 179.52"></path>
	</g>
</svg>
